<svg xmlns="http://www.w3.org/2000/svg" viewBox="0 0 2560 800">
	<defs>
		<style>.cls-2,.cls-3,.cls-4{fill:#222;}.cls-2{opacity:0.5;}.cls-3{opacity:0.7;}</style>
	</defs>
	<g>
		<path id="third" class="cls-2" d="M2560,296.91c-1.79,0-3.59-.06-5.39-.06-102.14,0-187.65,71.16-209.67,166.6a223.82,223.82,0,0,0-62.25,47.31A117.63,117.63,0,0,0,2191.51,468a118.87,118.87,0,0,0-46.9,9.57c-2-.07-4-.12-6-.12a174.61,174.61,0,0,0-172.28,146.33,141.78,141.78,0,0,0-169.22,95.4q-3.16,2.46-6.08,5.2a181.42,181.42,0,0,0-111.36-79.66A118.34,118.34,0,0,0,1506.8,598a163.82,163.82,0,0,0-118.91-50.56,168.18,168.18,0,0,0-25.26,1.91,77.56,77.56,0,0,0-95.42.22,203.15,203.15,0,0,0-226.7-64.87,192.22,192.22,0,0,0-228.64,28,357.42,357.42,0,0,0-87.35-13.38,140.3,140.3,0,0,0-230.89.4,203.49,203.49,0,0,0-47.45-20.4,75.44,75.44,0,0,0-108.84-34.12,159.7,159.7,0,0,0-200.95-74.63A207.65,207.65,0,0,0,0,236.55V800H2560Z"/>
		<path id="second" class="cls-3" d="M2560,467.23a227.76,227.76,0,0,0-277.31,43.53A117.63,117.63,0,0,0,2191.51,468c-64.51,0-116.81,51-116.81,114q0,3.33.2,6.61c-53,10-94.87,50.5-105.54,102.08a209.23,209.23,0,0,0-75.52,23A85.56,85.56,0,0,0,1791,724.38c-31.87-50.86-89.3-84.8-154.86-84.8a183.86,183.86,0,0,0-91.63,24.23c-18.93-67.1-81.89-116.39-156.64-116.39A164.45,164.45,0,0,0,1298,573.89,228.84,228.84,0,0,0,1112.46,559c-31.36-59.24-94.68-99.74-167.7-99.74a190.38,190.38,0,0,0-132.89,53.46,357.5,357.5,0,0,0-87.35-13.39,140.31,140.31,0,0,0-230.89.41,206.23,206.23,0,0,0-240.81,23.1A347.94,347.94,0,0,0,0,481.32V800H2560Z"/>
		<path id="first" class="cls-4" d="M2560,542.9a169.77,169.77,0,0,0-127.46,60A205.93,205.93,0,0,0,2284,539.8c-110,0-199.89,86-206.16,194.41a75.49,75.49,0,0,0-100.46,57.27,92.86,92.86,0,0,0-164.58-7.92,156.61,156.61,0,0,0-301-11.08,73.93,73.93,0,0,0-95.93-19.58C1405.09,636.83,1307.44,546,1188.54,546a228.1,228.1,0,0,0-187.21,97.59C936.1,555.91,831.72,499.13,714.08,499.13c-143.22,0-266.76,84.14-324,205.68A380.09,380.09,0,0,0,0,651V800H2560Z"/>
	</g>
</svg>