<?xml version="1.0" standalone="no"?>
<!DOCTYPE svg PUBLIC "-//W3C//DTD SVG 20010904//EN"
 "http://www.w3.org/TR/2001/REC-SVG-20010904/DTD/svg10.dtd">
<svg version="1.0" xmlns="http://www.w3.org/2000/svg"
 width="1024.000000pt" height="1024.000000pt" viewBox="0 0 1024.000000 1024.000000"
 preserveAspectRatio="xMidYMid meet">
<metadata>
Created by potrace 1.11, written by Peter Selinger 2001-2013
</metadata>
<g transform="translate(0.000000,1024.000000) scale(0.100000,-0.100000)"
fill="#000000" stroke="none">
<path d="M4319 10236 c-2 -2 -40 -7 -84 -10 -107 -9 -218 -25 -295 -41 -14 -3
-36 -7 -50 -10 -65 -12 -90 -18 -155 -38 -38 -11 -74 -21 -80 -23 -30 -6 -202
-77 -275 -114 -214 -107 -438 -285 -578 -459 -20 -25 -40 -48 -43 -51 -11 -8
-159 -220 -159 -226 0 -3 -8 -18 -19 -32 -46 -66 -157 -286 -224 -442 -107
-252 -248 -657 -282 -811 -2 -9 -15 -64 -29 -122 -36 -147 -68 -314 -81 -427
-3 -30 -8 -66 -10 -80 -24 -156 -21 -445 7 -620 5 -36 12 -78 15 -95 2 -16 18
-79 34 -140 93 -337 224 -578 512 -935 29 -37 112 -135 117 -140 29 -25 342
-455 382 -525 43 -73 92 -193 103 -248 3 -10 7 -28 11 -39 34 -107 39 -389 9
-556 -18 -104 -40 -188 -71 -277 -19 -55 -36 -104 -38 -110 -33 -108 -152
-310 -226 -382 -47 -46 -166 -110 -220 -119 -61 -10 -194 -7 -237 5 -64 18
-124 69 -158 135 -26 52 -30 70 -32 155 -2 91 16 216 47 332 7 24 13 51 15 60
2 9 31 105 64 214 34 108 61 201 61 206 0 5 -294 9 -680 9 l-679 0 -20 -67
c-48 -166 -55 -189 -57 -198 -1 -5 -18 -66 -39 -135 -20 -69 -38 -132 -40
-140 -3 -8 -25 -88 -49 -178 -38 -136 -65 -250 -92 -387 -24 -122 -42 -313
-42 -455 0 -473 152 -748 500 -908 137 -63 311 -107 503 -128 207 -21 667 -22
785 0 14 3 57 8 95 11 103 9 347 60 450 94 461 149 796 447 1085 964 28 49 82
156 85 167 0 3 14 32 29 65 76 162 177 419 241 610 45 135 125 397 130 424 3
14 10 42 15 61 6 19 13 46 16 59 3 13 12 51 20 85 8 34 17 72 20 86 2 14 6 34
9 46 3 12 7 39 10 60 4 21 8 46 10 54 2 8 7 42 10 75 4 33 8 71 11 85 18 107
24 434 12 585 -7 76 -33 240 -44 277 -3 9 -7 25 -9 35 -7 33 -46 156 -77 243
-56 157 -154 344 -268 515 -30 44 -304 392 -319 405 -6 5 -86 105 -182 226
-193 245 -269 393 -304 591 -14 80 -21 268 -11 318 2 11 7 39 11 62 4 24 22
98 41 165 19 68 37 130 39 138 2 8 4 16 5 18 2 1 3 5 4 10 6 29 65 169 94 222
70 129 111 179 197 240 125 87 317 110 433 51 144 -73 181 -234 117 -511 -2
-8 -8 -37 -15 -65 -6 -27 -47 -157 -91 -289 -44 -131 -78 -240 -75 -243 9 -10
1356 -7 1365 3 5 5 23 54 40 109 53 172 162 529 166 545 2 8 11 40 20 70 9 30
18 63 20 72 2 10 17 73 34 140 16 68 32 139 35 158 3 19 10 58 15 87 6 29 13
74 16 100 4 26 9 59 11 73 3 14 7 100 8 192 8 471 -135 746 -471 908 -61 30
-216 85 -263 94 -14 2 -46 9 -71 15 -25 6 -61 12 -80 15 -59 8 -113 16 -149
22 -36 6 -605 15 -611 10z"/>
<path d="M6372 8257 c-7 -10 -146 -462 -172 -562 -5 -16 -42 -142 -84 -280
-42 -137 -79 -257 -81 -265 -2 -8 -27 -91 -55 -185 -28 -93 -53 -177 -55 -185
-3 -13 -128 -427 -215 -710 -32 -107 -202 -672 -256 -855 -20 -66 -38 -127
-41 -135 -3 -8 -7 -19 -8 -25 -5 -19 -56 -190 -69 -230 -8 -22 -21 -65 -30
-95 -8 -30 -32 -109 -52 -175 -109 -363 -162 -539 -169 -565 -2 -8 -38 -127
-80 -265 -42 -137 -78 -254 -79 -260 -1 -5 -12 -41 -24 -80 -12 -38 -85 -281
-163 -540 -77 -258 -186 -618 -240 -800 -55 -181 -102 -337 -104 -345 -2 -8
-38 -127 -80 -265 -42 -137 -78 -257 -80 -265 -4 -13 -50 -169 -91 -303 -14
-48 -33 -112 -58 -194 -8 -27 -29 -95 -46 -153 -17 -58 -42 -141 -55 -185 -13
-44 -40 -132 -59 -195 -20 -63 -34 -120 -32 -126 3 -8 198 -12 708 -13 l703
-2 17 58 c8 32 32 110 51 173 19 63 41 135 48 160 14 52 13 46 38 130 48 157
133 436 135 445 1 6 9 30 16 55 8 25 14 47 15 50 1 3 7 25 15 50 7 25 15 50
16 55 1 6 17 55 34 110 17 55 32 105 34 110 1 6 8 30 15 55 6 25 16 56 21 70
4 14 16 52 26 85 9 33 29 101 45 150 15 50 32 106 37 125 14 51 169 567 186
620 8 25 36 115 61 200 25 85 50 171 56 190 l11 35 261 1 c240 1 469 8 557 19
19 2 62 6 95 10 61 6 100 12 145 20 14 3 41 7 60 10 223 37 491 131 645 227
157 98 311 232 396 343 13 17 26 32 29 35 4 3 24 30 46 60 191 262 366 658
529 1195 25 83 52 170 59 195 48 154 374 1240 432 1440 112 385 160 667 156
924 -1 93 -5 148 -17 206 -3 14 -7 36 -10 50 -2 14 -13 51 -24 83 -88 256
-310 403 -711 472 -100 17 -143 23 -230 31 -36 3 -83 8 -105 11 -22 3 -507 6
-1077 8 -787 3 -1039 1 -1046 -8z m1510 -1486 c178 -56 172 -286 -28 -976 -30
-104 -63 -215 -73 -245 -10 -30 -29 -91 -41 -135 -116 -415 -269 -753 -397
-877 -108 -105 -195 -127 -492 -124 -121 1 -223 4 -226 8 -3 3 31 126 76 274
44 148 85 285 91 304 6 19 41 139 80 265 38 127 71 237 73 245 1 8 13 47 25
85 12 39 27 90 35 115 22 76 62 208 105 350 23 74 43 142 45 150 2 8 18 60 35
115 17 55 32 107 34 115 4 15 93 312 101 337 6 17 502 11 557 -6z"/>
</g>
</svg>
